<svg width="3030" height="1998" viewBox="0 0 3030 1998" fill="none" xmlns="http://www.w3.org/2000/svg">
<path d="M839.146 1537.69L838.092 1538.74L837.701 1539.01L837.326 1539.06L836.952 1539.01L836.595 1539.03L836.323 1539.32L836.272 1539.7L836.357 1540.01L836.51 1540.3L836.578 1540.68L836.595 1540.9L836.646 1541.05L836.816 1541.36L836.884 1541.53L836.918 1541.7L836.884 1541.88L836.391 1543.03L836.204 1543.3L836.051 1543.47L835.728 1543.76L835.337 1544.24L835.184 1544.37L834.997 1544.43H834.758L834.554 1544.5L833.976 1544.85L833.772 1544.9L833.33 1544.95L832.446 1544.86L832.02 1544.9L831.816 1545L831.595 1544.81L831.187 1544.55L830.677 1544.18L830.422 1544L830.116 1543.85L829.826 1543.68L829.418 1543.46L828.993 1543.04L828.976 1543.01L828.925 1542.92L828.874 1542.85L828.84 1542.84L828.755 1542.82L828.704 1542.8L828.228 1542.36L828.092 1542.27L827.786 1542.19L827.684 1542.08L827.582 1541.74L827.497 1541.57L827.377 1541.48L827.241 1541.43L826.901 1541.16L826.731 1541.07L826.238 1540.9L826.068 1540.88L825.643 1540.45L825.456 1540.35L825.354 1540.25L825.099 1539.94L824.963 1539.85L824.571 1539.66L824.265 1539.44L824.078 1539.35L823.908 1539.32L823.636 1539.35L823.602 1539.37L823.585 1539.29L823.636 1539.18L823.772 1539.01L823.806 1538.8L823.772 1538.63L823.721 1538.46L823.653 1537.57L823.619 1537.4L823.5 1537.05L823.466 1536.76L823.432 1536.73L823.381 1536.71L823.313 1536.66L823.092 1536.37L822.786 1536.16L822.769 1536.13L822.65 1535.85L822.514 1535.75L822.377 1535.7L822.054 1535.65L821.867 1535.58L821.782 1535.53L821.646 1535.39L821.493 1535.3L821.459 1535.29L820.082 1534.93L819.775 1534.77L819.503 1534.55L819.112 1534.09L818.908 1533.9L818.466 1533.62L818.279 1533.54L818.092 1533.5L817.582 1533.45L817.514 1533.42L817.463 1533.33L817.48 1533.14L817.463 1533.06L817.343 1532.94L817.003 1532.75L816.935 1532.66L816.85 1532.52L816.646 1532.42L816.255 1532.33L816.051 1532.2L816.017 1532.04V1531.89L815.949 1531.72L815.473 1531.17L815.286 1531.03L815.201 1531H815.116L815.048 1530.98L814.98 1530.93L814.894 1530.81L814.826 1530.76L814.758 1530.74L814.707 1530.7L814.52 1530.58L814.435 1530.53L814.095 1530.48L813.602 1530.28H812.735L812.003 1530L811.119 1529.35L809.69 1528.83L809.401 1528.52L809.044 1528.34L808.738 1528.11L808.585 1528.06L808.262 1528.08L808.109 1528.03L807.99 1527.94L807.871 1527.91L807.735 1527.96L807.667 1527.84L807.548 1527.48L807.48 1527.39L807.395 1527.36L807.156 1527.31L806.697 1527.07L806.187 1526.95L805.218 1526.6L804.571 1526.5L804.367 1526.65L804.384 1526.43L804.231 1526.31L804.146 1526.23L804.095 1526.17L803.789 1526.07L803.194 1525.8L802.956 1525.64L802.429 1525.26L801.85 1524.83L801.612 1524.63V1524.53L801.663 1524.42L801.595 1524.29L801.51 1524.17L801.255 1524.05L800.541 1523.65L800.422 1523.62L800.065 1523.57L799.929 1523.48L799.809 1523.34L799.792 1523.26L799.69 1523.19L799.486 1523.12L799.163 1523.19L798.874 1523.12L798.585 1523.02L798.228 1522.76L798.177 1522.71L798.16 1522.54L798.143 1522.45L798.092 1522.38V1522.26L798.041 1522.14L797.837 1522.05L797.429 1521.93L796.238 1521.4L795.66 1521.08L794.86 1520.73L794.673 1520.49L793.772 1520.01L793.534 1519.82L793.432 1519.79L793.296 1519.81L793.245 1519.84L793.194 1519.82L793.058 1519.72L792.803 1519.45L792.718 1519.38L792.548 1519.33L792.377 1519.29L792.258 1519.24L792.207 1519.1L792.156 1519.07L792.02 1519.03L792.003 1518.97L792.02 1518.93L792.139 1518.88L792.292 1518.83L792.326 1518.71L792.207 1518.52L791.969 1518.37L791.629 1518.23L791.408 1518H791.561L791.663 1517.95L791.697 1517.87L791.68 1517.76L791.646 1517.68L791.595 1517.61L791.187 1517.22L791.017 1517.15L790.592 1517.08L790.473 1516.99L790.388 1516.84L790.32 1516.63L789.929 1516.07L789.877 1515.89L789.809 1515.81L789.503 1515.6L789.418 1515.52L789.401 1515.45L789.418 1515.17L789.384 1515.12L789.027 1514.83L788.33 1514.49L788.109 1514.37L787.939 1514.28L787.735 1514.14L787.377 1513.83L786.969 1513.63L786.935 1513.59L786.867 1513.54L786.782 1513.51L786.714 1513.49L786.629 1513.46L786.561 1513.37L786.51 1513.29L786.459 1513.2L786.391 1513.13L786.34 1513.1L785.983 1512.91L785.864 1512.79L785.898 1512.6L785.864 1512.39L785.847 1512.19L785.745 1512L785.592 1511.79L785.507 1511.74L785.49 1511.64L785.524 1511.57L785.592 1511.43L785.558 1511.36L785.456 1511.16L785.269 1511.05L784.98 1510.88L784.877 1510.78L784.724 1510.56L784.605 1510.44L784.52 1510.4L784.316 1510.38L784.248 1510.35L784.18 1510.28L784.095 1510.01L784.333 1509.97L784.401 1509.9V1509.82L784.35 1509.7L784.265 1509.54L784.214 1509.46L784.146 1509.27L784.061 1509.11L783.925 1509.05L783.789 1508.99L783.721 1508.87L783.67 1508.74L783.619 1508.63L783.5 1508.57L783.211 1508.45V1508.63L783.041 1508.91L782.888 1508.62L782.956 1508.39L782.939 1508.07L782.871 1507.88L782.956 1507.81V1507.67L783.075 1507.6L783.024 1507.52L783.041 1507.43L783.058 1507.35L782.973 1507.24L782.922 1507.11L783.024 1507.07L783.041 1506.85L782.99 1506.7L782.837 1506.61L782.82 1506.51V1506.44L782.854 1506.37L782.871 1506.32L782.82 1506.27L782.735 1506.25L782.684 1506.28L782.65 1506.42L782.599 1506.49L782.497 1506.45L782.343 1506.47L782.19 1506.39H782.02V1506.16L782.054 1506.04L782.156 1505.75L782.241 1505.63L782.207 1505.53L782.292 1505.46L782.429 1505.49L782.582 1505.37H782.735L782.837 1505.39L782.888 1505.49L782.803 1505.61L782.786 1505.73L782.854 1505.8L782.956 1505.85L783.126 1505.97L783.177 1505.89L783.194 1505.7L783.228 1505.53L783.364 1505.13L783.432 1504.88V1504.7L783.449 1504.46L783.551 1504.19L783.653 1503.91L783.789 1503.21L783.738 1502.56L783.67 1502.25L783.449 1501.63L783.024 1501.03L782.752 1500.77L782.207 1500.05L781.544 1499.18L781.272 1498.87L781.221 1498.66L781.102 1498.47L781 1498.1L781.051 1497.79L781 1497.44L780.881 1497.22L780.796 1497.12L780.218 1496.62L780.065 1496.42L779.707 1495.71L779.639 1495.61V1495.37V1495.3L779.571 1495.21L779.435 1495.08L779.18 1494.72L778.823 1494.48L778.653 1494.36L778.551 1494.12L778.721 1493.89L778.806 1493.58L778.721 1493.26L778.449 1493L778.211 1492.57L777.412 1492.12L776.935 1491.92H776.85L776.816 1491.87L776.68 1491.73L776.629 1491.64L776.595 1491.54L776.629 1491.46L776.663 1491.39L776.68 1491.3L776.544 1490.96L776.255 1490.75L776.051 1490.68L775.898 1490.63L775.541 1490.6L775.609 1490.44L775.711 1490.32L775.796 1490.19L775.83 1489.98L775.779 1489.4L775.711 1489.21L775.643 1488.95L775.609 1488.86L775.49 1488.66L775.439 1488.49L775.49 1488.28L775.371 1488.07V1488.01L775.524 1488.02L775.609 1487.9L775.575 1487.73L775.371 1487.34L775.337 1487.17L775.235 1486.96L775.116 1486.79L774.997 1486.74L774.894 1486.68L774.792 1486.6L774.656 1486.41L774.622 1486.36L774.69 1486.27V1486.2L774.656 1486.14L774.503 1485.96L774.401 1485.74L774.333 1485.65L774.265 1485.62L774.163 1485.59L774.112 1485.52L773.993 1485.38L773.857 1485.28L773.5 1485.12L773.228 1484.88L771.935 1484.2L771.731 1484.02L771.629 1483.94L771.646 1483.84L771.629 1483.63L771.578 1483.46L771.646 1483.41L771.612 1483.34L771.68 1483.27L771.765 1483.25L771.867 1483.29L771.935 1483.23L772.037 1483.2L772.071 1483.06L772.054 1482.84L771.952 1482.65L771.867 1482.53L771.901 1482.43L771.731 1482.22L771.782 1482.14L771.697 1482L771.731 1481.91L771.663 1481.76L771.51 1481.57L771.544 1481.48L771.629 1481.42L771.544 1481.23L771.476 1481.11L771.493 1480.99L771.425 1480.82L771.34 1480.68L771.221 1480.51L771.085 1480.32L771.102 1480.18L770.898 1480.01L770.745 1479.87V1479.73L770.779 1479.67L770.643 1479.46L770.66 1479.41L770.422 1479.18L770.286 1479.08L770.235 1478.98L770.201 1478.89L770.133 1478.82L769.946 1478.65L769.418 1477.74L769.452 1477.64L769.333 1477.43L769.18 1477.31L768.959 1477.13L768.976 1476.99L768.891 1476.8L768.738 1476.59L768.602 1476.44L768.585 1476.35L768.653 1476.27L768.636 1476.18L768.551 1476.08L768.228 1475.87L768.211 1475.72V1475.5L768.058 1475.36L767.99 1475.29L767.973 1475.15L767.905 1474.96L767.939 1474.86L767.854 1474.74L767.82 1474.64L767.667 1474.45L767.309 1474.12L767.241 1473.95L767.173 1473.86V1473.78L767.241 1473.76L767.292 1473.71V1473.61L767.207 1473.5L767.241 1473.45L767.224 1473.35V1473.28L767.088 1473.09L767.054 1472.9L767.003 1472.8L766.935 1472.7L766.901 1472.61L766.816 1472.58L766.799 1472.53H766.748L766.731 1472.47L766.748 1472.42L766.799 1472.37L766.782 1472.29L766.799 1472.18L766.782 1472.08L766.748 1471.94L766.697 1471.87L766.68 1471.72L766.714 1471.55L766.782 1471.43V1471.17L766.459 1470.86L766.187 1470.55L766.136 1470.36L766 1470.21L765.932 1470.05L765.847 1469.97L765.745 1469.8L765.626 1469.66L765.592 1469.39L765.643 1469.16L765.49 1469.08L765.456 1468.92V1468.8L765.388 1468.68L765.32 1468.48L765.388 1468.37L765.49 1468.25L765.439 1468.13L765.32 1468.12L765.15 1468L765.116 1467.76L765.133 1467.62L765.201 1467.55L765.252 1467.5L765.167 1467.46L765.082 1467.38L765.014 1467.33L764.98 1467.22L764.86 1467.17L764.758 1467.19L764.673 1467.24L764.486 1467.02V1466.93L764.469 1466.85L764.384 1466.79L764.316 1466.73L764.401 1466.66L764.469 1466.61L764.571 1466.57L764.622 1466.42L764.639 1466.24L764.571 1466.04L764.418 1465.94L764.248 1465.9L764.129 1465.94L764.061 1465.99L764.027 1466.06L764.061 1466.12L764.078 1466.23L764.112 1466.4V1466.5L764.01 1466.47L763.908 1466.24L763.738 1466.06L763.619 1465.94L763.636 1465.83L763.602 1465.8L763.636 1465.75L763.755 1465.8L763.959 1465.85L764.01 1465.78L764.044 1465.7V1465.52L763.976 1465.32L763.891 1465.2L763.789 1465.1L763.67 1465.08L763.517 1465.1L763.449 1465.04L763.364 1464.91L763.381 1464.77L763.432 1464.63L763.483 1464.55L763.398 1464.48L763.211 1464.39L763.194 1464.31L763.262 1464.32L763.313 1464.27V1464.08L763.262 1463.86L763.194 1463.74L763.092 1463.57L763.041 1463.43L762.905 1463.29L762.735 1463.05L762.343 1462.52L762.36 1462.45L762.377 1462.37L762.429 1462.3L762.531 1462.23L762.548 1461.99L762.514 1461.78L762.531 1461.66L762.463 1461.44L762.394 1461.11L762.139 1460.75L761.884 1460.43L761.561 1460.12L761.374 1459.98L761.119 1459.88L761 1459.77L760.898 1459.65L760.932 1459.53L761.017 1459.55L761.068 1459.57L761.17 1459.5L761.204 1459.33V1459.16L760.694 1458.38L760.677 1458.2L760.473 1457.92L760.507 1457.8L760.235 1457.49L759.367 1456.72V1456.51L758.874 1456.19L757.905 1455.45L757.48 1454.95L757.207 1454.56L757.105 1454.21L756.697 1453.75L756.612 1453.65L756.527 1453.56L756.561 1453.49L756.663 1453.46L756.765 1453.37L756.782 1453.2L756.68 1453.01L756.374 1452.53L755.779 1451.71L755.558 1451.43L755.541 1451.23L755.507 1451.07V1450.99L755.592 1450.89L755.626 1450.78L755.541 1450.52L755.439 1450.32L755.456 1450.15L755.303 1449.77L755.048 1449.48L754.724 1449.13L754.605 1449.01L754.656 1448.84L754.673 1448.62L754.52 1448.41L753.636 1447.52L753.211 1447.09L753.109 1446.92L752.667 1446.53L752.548 1446.27L752.514 1445.99L752.394 1445.72L752.19 1445.48L752.054 1445.32L751.102 1444.57L750.694 1444.3L749.622 1443.68L748.279 1442.99L746.051 1441.86L745.541 1441.62L745.014 1441.1L744.418 1440.67L743.687 1440.26L742.956 1439.7L742.718 1439.39L742.548 1438.89L742.565 1438.55V1438.19L742.548 1438.1L742.718 1437.96L742.769 1437.79L742.803 1437.74L742.99 1437.72L743.092 1437.53V1437.4L743.177 1437.29L743.313 1437.31L743.483 1437.55L743.721 1437.67L744.027 1437.79L744.299 1437.83L744.605 1437.53L744.929 1436.93L744.997 1436.14L744.775 1435.51L744.367 1434.58L744.112 1434.29L743.347 1433.53L743.194 1433.36L743.007 1433.31L742.905 1433.35L742.701 1433.19L742.531 1432.92L742.326 1432.68L742.156 1432.42L742.19 1432.33L742.241 1432.26L742.36 1432.23L742.412 1432.06L742.394 1431.96L742.326 1431.87V1431.77L742.446 1431.73L742.412 1431.6L742.377 1431.41L742.446 1431.29L742.582 1431.3L742.718 1431.22L742.871 1431.36L743.109 1431.34L743.245 1431.15L743.279 1430.86L743.092 1430.46L742.82 1430.17L742.565 1429.98L742.36 1429.67L742.224 1429.43L741.935 1429.06L741.272 1428.33L741 1427.97L741.034 1427.85L741.136 1427.8L741.272 1427.68L741.238 1427.51L741.17 1427.32L741.238 1426.89V1426.76L741.204 1426.6L741.119 1426.43L741.068 1426.28L741.102 1426.16L741.187 1426.07L741.255 1426.03L741.289 1425.98L741.357 1425.88L741.476 1425.61V1425.42L741.357 1424.94L741.391 1424.78L741.493 1424.58L741.612 1424.39L741.697 1424.28L742.429 1423.79L742.616 1423.58L742.769 1423.31L742.888 1423.17L743.041 1423.12L743.194 1423.08L743.279 1423L743.415 1422.72L743.857 1422.04L744.112 1421.76L744.435 1421.52L744.775 1421.33L744.894 1421.21L744.946 1421.02L744.963 1420.83L745.031 1420.66L745.167 1420.37L745.388 1420.08L745.694 1419.84L747.003 1419.05L747.241 1418.81L747.599 1418.3L747.65 1418.12L747.718 1418.09H747.803L747.871 1418.04L748.007 1417.99L748.568 1418L748.738 1417.97L748.908 1417.9L749.044 1417.78L749.095 1417.64L749.112 1417.54L749.231 1417.35L749.265 1417.27V1417.18L749.333 1417.21L749.452 1417.28L749.775 1417.37L749.894 1417.45L749.877 1417.61L749.826 1417.78L749.843 1417.95L749.894 1418L750.031 1418.05L750.082 1418.12L750.099 1418.19V1418.28L750.082 1418.43L750.031 1418.67L750.014 1418.72L750.082 1418.79L750.15 1418.81L750.235 1418.84L750.252 1418.93V1419.02L750.303 1419.19V1419.27V1419.36L750.252 1419.51L750.235 1419.6V1419.69V1419.74L750.286 1419.89L750.303 1419.98L750.269 1420.05L750.235 1420.1L750.218 1420.17L750.252 1420.34L750.422 1420.61L750.49 1420.78L750.507 1420.85V1421.01L750.524 1421.08L750.609 1421.16L750.677 1421.21L750.728 1421.26V1421.35L750.592 1421.5L749.946 1421.8L749.826 1421.95L749.707 1422.14L749.571 1422.31L749.401 1422.4L749.231 1422.36L748.891 1422.17L748.721 1422.12H748.551H748.381L748.228 1422.17L748.109 1422.26L748.007 1422.4L747.922 1422.6L747.854 1422.81L747.837 1422.83V1422.98L747.871 1423.08L748.007 1423.27L748.058 1423.37V1423.46L748.024 1423.62V1423.68L748.194 1424.06L748.483 1424.1L748.84 1423.99L749.231 1423.94L749.146 1424.13L748.041 1425.61L748.007 1425.74L748.092 1425.91L748.194 1426.02L748.568 1426.24L748.704 1426.28H748.857H748.925L748.993 1426.21L749.333 1426.02L749.98 1425.52L750.116 1425.38L750.167 1425.25L750.252 1424.95L750.32 1424.83L750.388 1424.78L750.473 1424.73L750.575 1424.7L750.915 1424.66L750.932 1424.64L750.983 1424.75L751.119 1424.78L751.289 1424.82L751.442 1424.87L751.578 1425.01L751.85 1425.3L752.02 1425.42L752.241 1425.54L752.463 1425.55L752.667 1425.57L752.888 1425.62L753.109 1425.81L753.279 1426.09L753.483 1426.29L753.789 1426.34L754.35 1426.17L754.639 1426L754.929 1425.97L755.167 1426.07L755.575 1426.5L755.643 1426.52L755.762 1426.62L755.813 1426.64H756.017L756.187 1426.74L756.238 1426.82L756.204 1426.94L756.017 1427.29V1427.46L756.255 1427.82L756.357 1428.32L756.561 1428.73L756.578 1428.75L756.595 1428.9L756.663 1429.07L756.799 1429.19L756.969 1429.28L757.122 1429.4L757.156 1429.47L757.207 1429.64L757.258 1429.71L757.326 1429.76L757.497 1429.83L757.565 1429.86L757.667 1430.03L757.769 1430.21L757.871 1430.34L758.075 1430.39L758.449 1430.38H758.653L758.806 1430.39L759.078 1430.5L759.231 1430.53H759.316L759.452 1430.5L759.537 1430.51L759.622 1430.55L759.707 1430.62L759.86 1430.77L760.099 1430.57L760.32 1430.34L760.371 1430.15L760.473 1429.76L760.558 1429.62L760.728 1429.57H760.949L761.136 1429.52L761.221 1429.36L761.187 1429.16L761 1428.78L760.983 1428.56L761.085 1428.32L761.238 1428.11L761.612 1427.75L761.969 1427.55L762.718 1427.25L762.803 1427.18L763.041 1427.03L763.109 1426.89L763.126 1426.74L763.109 1426.57L763.143 1426.41L763.262 1426.22L763.381 1426.07L763.398 1425.93L763.211 1425.81L763.109 1425.64L763.041 1425.33L763.024 1425.02L763.092 1424.85L763.245 1424.71L763.33 1424.54L763.398 1424.18L763.908 1423.12L763.993 1422.74V1422.24L764.027 1422.1L764.112 1422.02L764.214 1421.98H764.299L764.418 1421.95L764.537 1421.88L764.571 1421.85V1421.8L764.639 1421.18L764.707 1421.01L764.792 1420.85L764.843 1420.82L764.946 1420.77L765.014 1420.71L765.218 1420.53L765.269 1420.35L765.15 1419.82V1419.7L765.167 1419.67L765.201 1419.65L765.303 1419.63L765.371 1419.58V1419.5L765.337 1419.34V1419.03L765.354 1418.86L765.405 1418.69L765.558 1418.36L765.575 1418.33L765.677 1417.99L765.745 1417.63V1417.52L765.694 1417.37V1417.32L765.779 1417.15L765.915 1417.11L766.102 1417.13L766.459 1417.23L766.561 1417.32L766.629 1417.44L766.731 1417.99L766.816 1418.14L766.935 1418.09L767.054 1417.97L767.207 1417.93L767.343 1417.88L767.412 1417.71L767.394 1417.49L767.292 1417.37L767.156 1417.27L767.071 1417.11V1416.94L767.156 1416.82L767.463 1416.6L767.565 1416.44L767.82 1415.94L767.939 1415.81L768.347 1415.48L769.18 1414.35L769.792 1413.8L769.946 1413.71L770.269 1413.61L770.49 1413.52L771.544 1413.16L772.582 1412.79L773.636 1412.43L774.673 1412.05L775.711 1411.69L776.765 1411.31L777.803 1410.95L778.84 1410.57L779.605 1410.31L779.741 1410.23L780.099 1410.01L780.575 1409.65L781.068 1409.27L781.561 1408.87L782.054 1408.5L782.548 1408.12L783.041 1407.72L783.551 1407.35L784.044 1406.97L784.537 1406.57L784.946 1406.09L785.371 1405.61L785.779 1405.11L786.187 1404.63L786.612 1404.14L787.02 1403.66L787.429 1403.18L787.854 1402.68L788.177 1402.28L788.636 1401.85L788.772 1401.7L788.84 1401.63L788.942 1401.34L789.061 1400.84L789.316 1399.86L789.571 1398.87L789.809 1397.89L790.065 1396.89L790.167 1396.48L790.218 1396.41L790.456 1396.64L790.558 1396.76L790.609 1396.84L790.694 1396.91H790.881L791.238 1396.88H791.629H791.697V1396.81L791.646 1396.72L791.561 1396.65L791.493 1396.57L791.476 1396.48L791.493 1396.35V1396.28L791.119 1395.01L791.136 1394.9L791.187 1394.75L791.204 1394.66L791.187 1394.58L791.153 1394.42V1394.34L791.187 1394.23L791.272 1394.18L791.374 1394.13L791.459 1394.05L791.476 1393.98L791.459 1393.91L791.442 1393.86L791.425 1393.79L791.459 1393.46L791.425 1393.31L791.34 1393.15L791.289 1393.14L791.221 1393.17H791.17L791.136 1393.14L791.102 1393.03L791.068 1393L790.745 1392.74L790.711 1392.69L790.66 1392.67H790.558L790.473 1392.66L790.371 1392.6L790.218 1392.45L789.98 1392.12L789.826 1391.76L789.571 1390.82L789.469 1390.7L789.333 1390.61L789.163 1390.56L789.061 1390.51L788.891 1390.34L788.789 1390.27H788.704L788.534 1390.29L788.449 1390.27L788.381 1390.18L788.296 1390.01L788.245 1389.82L788.296 1389.69L788.415 1389.63L788.568 1389.69L788.721 1389.74L788.857 1389.77L788.993 1389.76H789.112L789.231 1389.77L789.809 1390.1L790.031 1390.12L790.252 1389.96H790.32L790.609 1390.01L790.728 1390L790.847 1389.96L790.949 1389.91L791.136 1389.77L791.238 1389.65L791.357 1389.6L791.493 1389.5L791.595 1389.38L791.646 1389.27L791.663 1389.1L791.748 1389.02L791.867 1389L792.037 1389.02L792.412 1389.12L792.582 1389.21L792.752 1389.33L793.075 1389.77L793.177 1389.88L793.245 1389.89L793.381 1389.91L793.466 1389.93L793.517 1389.96L793.857 1390.34L793.959 1390.42L794.146 1390.51L794.418 1390.56L794.571 1390.61H794.639L794.741 1390.53L794.946 1390.2L795.048 1390.18L795.218 1390.34L795.337 1390.49L795.626 1391.08L795.388 1391.25L795.32 1391.37L795.473 1391.42H795.558L795.728 1391.47L795.932 1391.49L795.983 1391.52L796.017 1391.56L796.068 1391.59L796.119 1391.64L796.136 1391.68L796.187 1391.71H796.306L796.34 1391.69L796.408 1391.66L796.476 1391.61L796.561 1391.59L796.646 1391.66L796.867 1392.05L797.224 1392.43L797.446 1392.6L797.939 1392.91L798.041 1393L798.143 1393.12L798.228 1393.24L798.262 1393.26H798.381L798.415 1393.29L798.432 1393.38L798.449 1393.46V1393.48L798.466 1393.55L798.857 1394.41L798.84 1394.47L798.738 1394.56L798.704 1394.63L798.687 1394.8L798.755 1394.92L799.027 1395.23L799.095 1395.26L799.163 1395.3H799.316L799.384 1395.33L799.316 1395.45L799.367 1395.56L799.452 1395.64L799.486 1395.74L799.435 1395.85H799.316L799.197 1395.81L799.095 1395.85L799.027 1395.93L799.078 1396.02L799.282 1396.16L799.367 1396.26L799.486 1396.65L799.673 1396.89L799.894 1397.01L800.388 1397.1L800.898 1397.31L801.119 1397.29L801.255 1397.05L801.34 1397.13L801.544 1397.72L801.578 1397.79L801.646 1397.86L801.748 1397.89L801.799 1397.87L801.833 1397.84L801.935 1397.79L801.969 1397.75L801.986 1397.7L802.037 1397.68L802.105 1397.74V1397.8L802.037 1397.96V1398.03L802.156 1398.08L802.412 1398.03L802.548 1398.08L802.599 1398.15L802.735 1398.49L802.871 1398.73L802.956 1398.82L803.075 1398.89L803.296 1398.97L803.432 1398.99H803.534L803.67 1398.92L803.806 1398.71L803.925 1398.66L803.993 1398.82L804.112 1398.94L804.265 1399.02L804.452 1399.06L804.554 1399.09L804.707 1399.21L804.912 1399.26L804.946 1399.33L804.963 1399.43L805.031 1399.55L805.048 1399.66L805.065 1399.69H805.099L805.201 1399.67L805.235 1399.69L805.252 1399.74L805.269 1399.81L805.286 1400L805.303 1400.05L805.337 1400.12L805.388 1400.17L805.524 1400.24L805.473 1400.33L805.354 1400.48L805.422 1400.62L805.728 1400.76L805.83 1400.91L806 1401.03L806.068 1401.13L806.085 1401.2L806.068 1401.3L806.085 1401.41L806.17 1401.75V1401.92L805.966 1402.04L805.898 1402.16L805.796 1402.44L805.779 1402.76L805.949 1402.97L806.476 1403.31L806.493 1403.33L806.527 1403.45L806.544 1403.48H806.578L806.663 1403.47L806.782 1403.48H806.867L806.969 1403.5L807.071 1403.57L807.275 1403.74L807.36 1403.76L807.429 1403.67L807.565 1403.54L807.684 1403.52L807.973 1403.59L808.024 1403.57L808.058 1403.35H808.143L808.364 1403.59L808.432 1403.66L808.517 1403.69L808.585 1403.72L808.636 1403.83L808.585 1404.14L808.619 1404.26L808.823 1404.48L808.874 1404.62L808.857 1404.7L808.772 1404.91L808.755 1405.03L808.789 1405.17L808.84 1405.27L808.993 1405.49L809.044 1405.65L809.095 1405.84L809.146 1406.01L809.265 1406.11L809.027 1406.52L808.942 1406.71L808.636 1406.99L808.568 1407.07L808.534 1407.12V1407.21L808.551 1407.29L808.619 1407.41L808.636 1407.47L808.67 1407.52L808.789 1407.6L808.806 1407.64L808.857 1407.9L808.874 1407.96L809.01 1408.05L809.367 1408.14L809.435 1408.22L809.486 1408.39L809.605 1408.29L809.707 1408.1L809.724 1408.02L810.286 1408.32L810.32 1408.38L810.439 1408.48L810.575 1408.87L810.66 1409.01L810.728 1409.06H810.796L811.153 1408.99L811.272 1408.96L811.374 1408.86L811.595 1408.77L811.816 1408.67L811.952 1408.72L812.173 1408.87L812.19 1408.77L812.224 1408.68L812.292 1408.63L812.394 1408.58L812.446 1408.63L812.48 1408.72L812.497 1408.8L812.531 1409.03L812.582 1409.04L812.718 1408.99L812.82 1408.89L813.041 1408.43L813.143 1408.31L813.296 1408.32L813.432 1408.41L813.823 1408.72L813.976 1408.75L814.826 1408.89L814.894 1408.96L814.946 1409.06L815.048 1409.17L815.201 1409.25L815.354 1409.29L815.541 1409.27L815.864 1409.18L816.068 1409.15L816.136 1409.13L816.153 1409.08V1408.91L816.187 1408.87L816.408 1408.82H816.493L817.02 1408.94L817.139 1408.91L817.514 1408.48L817.752 1408.27L817.973 1408.19H818.245L818.772 1408.26L818.908 1408.22L819.01 1408.12L819.061 1407.93L819.112 1407.86L819.503 1407.55L819.809 1407.09L819.843 1407H819.929L820.405 1406.69L820.592 1406.61L820.66 1406.66L820.643 1406.95L820.711 1407.09L820.881 1407.07L821.153 1406.92L821.357 1406.95L821.51 1407.05L821.663 1407.17L821.833 1407.28L822.309 1407.36L822.412 1407.45L822.446 1407.6L822.463 1407.95L822.514 1408.08L822.65 1408.14L822.718 1408.05L822.803 1407.72L822.905 1407.6L822.99 1407.64L823.143 1407.9L823.347 1408.15L823.364 1408.24L823.347 1408.31L823.228 1408.41L823.194 1408.48L823.296 1408.65L823.568 1408.6L824.163 1408.31L824.231 1408.41L824.384 1408.38L824.554 1408.29L824.69 1408.24L824.775 1408.26L824.877 1408.34L824.963 1408.36L825.048 1408.34L825.201 1408.22L825.439 1408.1L825.609 1407.71L825.796 1407.62L826.017 1407.57H826.136L826.34 1407.71L826.442 1407.72L826.544 1407.71L826.612 1407.67L826.544 1407.47L826.527 1407.26L826.612 1407.16H826.85L827.19 1407.31L827.412 1407.35L827.582 1407.28L827.837 1407.43L828.262 1407.9L828.551 1408.08L828.857 1408.19L829.01 1408.22L829.214 1408.26L829.265 1408.29L829.282 1408.36V1408.6L829.316 1408.62L829.571 1408.84L829.622 1408.92L829.639 1409.01V1409.13L829.656 1409.23L829.707 1409.29H830.048L830.116 1409.25V1409.17V1409.06L830.133 1408.99L830.286 1408.91L830.388 1408.98L830.49 1409.1L830.626 1409.15L830.762 1409.17L830.915 1409.22L831.068 1409.29L831.17 1409.39L831.221 1409.47L831.238 1409.56L831.289 1409.63L831.391 1409.68H831.476L831.663 1409.59L831.765 1409.56H831.935L832.122 1409.58L832.224 1409.66L832.19 1409.85L832.139 1409.87L832.003 1409.92L831.969 1409.97V1410.04L832.003 1410.11L832.054 1410.18L832.105 1410.19L832.309 1410.14L832.463 1410.04L832.633 1409.99L832.82 1410.07L832.922 1410.23L833.041 1410.59L833.126 1410.74L833.279 1410.8L833.415 1410.73L833.551 1410.69L833.721 1410.83L833.755 1410.92L833.738 1410.98L833.755 1411.07L833.84 1411.1L833.908 1411.09L833.959 1411.02L833.993 1410.93L834.044 1410.85L834.214 1410.74L834.299 1410.8L834.401 1411.17L834.452 1411.29L834.52 1411.4L834.622 1411.46L834.673 1411.48L834.656 1411.5L834.486 1411.79L833.823 1412.82L833.177 1413.85L832.531 1414.86L831.867 1415.89L831.221 1416.92L830.575 1417.95L829.929 1418.98L829.265 1420.01L828.993 1420.44L829.35 1420.49L830.473 1421.08L830.575 1421.14L831.017 1421.25L831.238 1421.26L831.442 1421.16L831.765 1420.87L831.952 1420.75L832.19 1420.73L832.497 1420.83L832.82 1421.08L833.092 1421.35L833.279 1421.64L833.381 1421.93L833.432 1422.24L833.517 1422.52L833.738 1422.74L834.588 1423.17L834.826 1423.37L834.997 1423.58L835.15 1423.79L835.371 1424.27L835.388 1424.49L835.32 1424.71L835.167 1424.92L834.895 1425.13L834.775 1425.14L834.656 1425.11L834.554 1425.04L834.452 1424.94L834.418 1424.87L834.367 1424.66L834.282 1424.51L834.112 1424.44L833.925 1424.46L833.772 1424.54L833.67 1424.7L833.534 1425.01L833.381 1425.16L833.279 1425.04L833.228 1424.9L833.16 1424.82L833.092 1424.8L833.024 1424.82L832.939 1424.78L832.531 1424.46L832.463 1424.35L832.446 1424.2L832.514 1423.87L832.497 1423.7L832.446 1423.58L832.343 1423.48L832.241 1423.44L832.088 1423.68L831.986 1423.65L831.782 1423.46L831.646 1423.41L831.51 1423.39L831.391 1423.43L831.272 1423.5L830.932 1423.77L830.796 1423.8L830.711 1423.75L830.694 1423.63L830.66 1423.51L830.524 1423.46L830.388 1423.53L830.337 1423.67L830.303 1423.82L830.235 1423.91L829.843 1423.67L829.826 1423.55L829.86 1423.39L829.843 1423.27L829.724 1423.24L829.588 1423.31L829.503 1423.39L829.418 1423.65L829.333 1423.72H829.18L828.653 1423.58H828.568L828.177 1423.79L828.075 1423.87L828.041 1423.99L828.109 1424.2L828.092 1424.27L827.956 1424.32L827.837 1424.37L827.769 1424.51L827.735 1424.66L827.65 1424.8L827.394 1425.04L827.292 1425.18L827.224 1425.33L827.037 1425.5L826.867 1425.35L826.748 1425.19L826.697 1425.38L826.544 1425.52L826.102 1425.33L825.898 1425.42L825.796 1425.61L825.728 1425.64L825.592 1425.62L825.524 1425.55L825.439 1425.37L825.371 1425.31L825.235 1425.4L825.116 1425.59L825.014 1425.73L824.775 1425.47L824.588 1425.43L824.384 1425.47L824.265 1425.59L824.231 1425.69L824.248 1425.78V1425.86L824.163 1425.97H824.146L824.095 1425.93H824.044L823.993 1425.95L823.908 1426.05L823.891 1426.09L823.772 1426.14L823.704 1426.09L823.653 1425.98L823.568 1425.93L823.466 1425.91L823.075 1425.97H822.82L822.701 1425.98L822.582 1426.03L822.531 1426.12L822.48 1426.29L822.429 1426.34H822.36L822.156 1426.29L822.037 1426.31L821.663 1426.48L821.697 1426.29L821.612 1426.33L821.442 1426.5L821.34 1426.53H821.272L821.204 1426.5L821.119 1426.41L820.983 1426.31L820.898 1426.34L820.796 1426.41L820.643 1426.43L820.558 1426.41L820.354 1426.31H820.269L820.201 1426.34L820.184 1426.4L820.167 1426.45L820.15 1426.5L820.082 1426.52L819.401 1426.58L819.265 1426.64L819.044 1426.77L818.653 1427.17L818.398 1427.24L818.262 1427.36L818.194 1427.41L818.126 1427.43L818.041 1427.39L817.973 1427.36H817.905L817.837 1427.43L817.684 1427.73L817.599 1427.85L817.429 1427.99L816.969 1428.25L816.544 1428.56L816.408 1428.64L816.255 1428.7H816.136L815.83 1428.66L815.728 1428.68L815.694 1428.75L815.677 1428.8L815.626 1428.85L815.286 1428.94L815.201 1429.04L815.133 1429.5L815.048 1429.64L814.912 1429.72L814.724 1429.83L814.69 1429.84H814.571L814.537 1429.86L814.503 1429.9V1429.95V1430V1430.03L814.452 1430.1L814.435 1430.19L814.384 1430.22L814.248 1430.24L814.095 1430.26L813.959 1430.33L813.823 1430.43L813.619 1430.65L813.381 1430.75L813.279 1430.86L813.245 1430.96V1431.03L813.211 1431.11L813.143 1431.18L813.058 1431.2H812.616L812.446 1431.15L812.275 1431.13L812.173 1431.22L812.071 1431.36L811.935 1431.42L811.595 1431.49L811.544 1431.48L811.442 1431.44L811.408 1431.46L811.374 1431.49V1431.61L811.357 1431.65L811.238 1431.72L811.17 1431.73H811.068L810.864 1431.78L810.83 1431.9L810.898 1432.06L810.966 1432.18L811.017 1432.32L811.068 1432.83L811.051 1432.95L810.966 1433.07L810.881 1433.19L810.813 1433.31L810.762 1433.67L810.728 1433.81L810.49 1434.32L810.405 1434.6L810.439 1434.87L810.524 1435.15V1435.37L810.388 1436.16L810.303 1436.4L810.184 1436.64L809.316 1437.79L809.027 1438.07L808.551 1439.13L808.364 1439.42L808.245 1439.75L808.228 1440.12L808.313 1440.33L808.721 1440.79L808.755 1440.93L808.84 1441.62L808.891 1441.81L809.078 1442.18L809.129 1442.39V1442.56L809.095 1442.75L808.959 1443.09L808.772 1443.45L808.534 1443.68L808.245 1443.83L807.871 1443.93L807.292 1443.95L807.105 1444L806.816 1444.28L806.493 1444.48L805.932 1444.96L805.252 1445.36L804.843 1445.7L804.605 1445.84L804.503 1445.93L804.401 1446.15L804.316 1446.25L803.976 1446.47L803.891 1446.56L803.84 1446.71L803.823 1447.18L803.619 1447.93L803.5 1448.17L803.449 1448.38L803.5 1448.52L803.517 1448.59L804.095 1449.41L804.18 1449.77L804.248 1449.94L804.265 1450.1L804.18 1450.25L804.044 1450.34L803.874 1450.37L803.551 1450.35L803.33 1450.37L803.194 1450.4L802.888 1450.59L802.701 1450.66H802.548L802.207 1450.52H802.037L802.054 1450.68L802.292 1451.09L802.343 1451.3L802.309 1451.43L802.241 1451.57L802.224 1451.76L802.122 1451.93L802.02 1451.98L801.731 1452.1L801.816 1452.26L802.139 1452.45L803.228 1453.6L803.449 1453.75L803.721 1453.87L804.027 1453.97L804.282 1454.18L804.35 1454.51L804.265 1454.83L803.993 1455L803.721 1454.9H803.602L803.585 1455.06L803.67 1455.45L803.721 1455.57L803.976 1455.78L804.333 1455.91L804.639 1456.09L804.775 1456.36L804.843 1456.55L805.116 1456.91L805.201 1457.11V1457.27L805.15 1457.6L805.184 1457.75L805.286 1457.96L805.524 1458.26L805.609 1458.49L805.643 1458.85L805.694 1459L805.813 1459.11L806.476 1459.48L806.561 1459.57L806.697 1459.74L806.782 1459.81L806.867 1459.84L807.037 1459.88L807.105 1459.9L807.224 1460.02L807.292 1460.17V1460.34L807.224 1460.72V1460.89L807.275 1461.03L807.633 1461.49L807.786 1461.65L807.956 1461.73L808.432 1461.83L808.602 1461.92L808.738 1462.06L808.84 1462.23L808.976 1462.59L809.622 1463.53L809.741 1463.64L810.048 1463.84L810.15 1463.96L810.388 1464.31L810.439 1464.44L810.524 1465.16L810.49 1465.4L810.422 1465.58L810.337 1465.68L809.963 1465.99L809.946 1466.21L809.895 1466.31L809.792 1466.38L809.656 1466.42L809.537 1466.43L809.435 1466.5L809.35 1466.64L809.214 1466.91L809.027 1467.17L808.585 1467.62L808.398 1467.89L811.731 1467.91L812.752 1468.12L812.786 1468.15L812.854 1468.2L812.905 1468.22L812.939 1468.2L813.007 1468.17L813.041 1468.15L813.211 1468.18L813.534 1468.29L813.891 1468.48L814.044 1468.51L814.418 1468.56L814.912 1468.53L815.082 1468.56L815.252 1468.65L815.473 1468.85L815.626 1468.96H815.711L815.813 1468.94L815.898 1468.96L815.949 1469.03V1469.11L815.932 1469.35L815.966 1469.52L816.034 1469.68L816.272 1469.93L816.323 1470.09L816.289 1470.26L816.187 1470.57L816.289 1470.9L816.867 1471.27L817.037 1471.62L817.071 1471.7L817.139 1471.87L817.156 1471.96L817.139 1472.08L817.003 1472.23L816.952 1472.32V1472.49L816.969 1472.65L816.952 1472.78L816.867 1472.97H817.309H818.789H820.269H821.748H823.228H823.534L823.687 1472.94L823.772 1472.87L823.806 1472.82L823.84 1472.77L823.959 1472.75L824.061 1472.78L824.112 1472.83L824.18 1472.87H824.299L824.452 1472.78L824.758 1472.54L825.15 1472.41L825.269 1472.25L825.337 1472.05L825.456 1471.86L825.592 1471.75L826.136 1471.51L826.663 1471.38L826.816 1471.26L826.867 1471.15L826.969 1470.93L827.037 1470.84L827.139 1470.76L827.36 1470.62L827.446 1470.54L827.684 1470.19L827.82 1470.04L828.245 1469.81L828.398 1469.68L828.721 1469.35L828.891 1469.21L829.435 1468.9L829.588 1468.75L829.877 1468.39L830.048 1468.24L830.218 1468.17L830.388 1468.12L830.728 1468.08L830.745 1468.2L830.728 1468.22L830.643 1468.37L830.626 1468.51L830.575 1468.61L830.422 1468.68L830.439 1468.72L830.456 1468.78L830.473 1468.8L830.371 1468.84L830.303 1468.92L830.286 1469.03L830.405 1469.23L830.32 1469.25L830.218 1469.23L830.167 1469.21H829.946L829.894 1469.23L829.98 1469.39L830.048 1469.66L830.099 1469.81L830.184 1469.95L830.439 1470.14L830.524 1470.26L830.592 1470.45L830.575 1470.6L830.507 1470.74L830.405 1470.9L830.388 1470.95L830.354 1471.05L830.32 1471.1H830.269L830.184 1471.05H830.15L830.065 1471.1L829.98 1471.15L829.912 1471.22L829.86 1471.32L829.792 1471.67V1472.17V1472.54L829.775 1473.25V1474.33V1475.43V1476.51V1477.59V1478.67L829.758 1479.75V1480.83V1481.54L830.473 1480.95L830.66 1480.92L830.881 1481.11L831.238 1481.55L831.459 1481.76L831.833 1481.95L832.258 1482.02L832.684 1482L833.092 1481.91L833.432 1481.79L835.456 1480.75L835.796 1480.76L835.949 1480.82L836.119 1480.83L836.459 1480.8L836.68 1480.82L836.816 1480.88L837.122 1481.09L837.412 1481.14L838.432 1481.02L838.585 1481.04L838.619 1481.09L838.653 1481.14L838.687 1481.19L838.704 1481.24L838.738 1481.3L838.772 1481.35L838.806 1481.4L838.823 1481.45L839.69 1482.99L840.558 1484.54L841.425 1486.08L842.292 1487.65L843.16 1489.19L844.027 1490.73L844.894 1492.3L845.762 1493.84L845.966 1494.22L846 1494.29L845.915 1494.32L845.864 1494.41L845.813 1494.58L845.745 1494.72L845.66 1494.84L845.541 1494.94L845.286 1495.08L845.184 1495.18L845.099 1495.3L845.082 1495.44L845.167 1495.52L845.439 1495.59L845.524 1495.69L845.32 1496.07L845.269 1496.16L844.571 1496.35L844.401 1496.45L844.282 1496.64L844.18 1496.88L843.993 1496.84L843.891 1497.02L843.806 1497.22L843.534 1497.43L843.5 1497.62V1497.99L843.602 1498.83L843.619 1498.96L843.551 1499.98L843.568 1500.33L843.687 1501L843.602 1502.68L843.619 1502.89L843.568 1503.09L843.5 1503.3L843.432 1503.4L843.262 1503.61L843.194 1503.69L843.177 1503.81L843.194 1503.93V1504.03L843.109 1504.12L843.024 1504.14L842.769 1504.09L842.65 1504.1L842.548 1504.29L842.718 1504.55L843.16 1504.91L843.245 1505.05V1505.15L843.211 1505.25L843.177 1505.39L843.194 1505.49L843.296 1505.84L843.449 1506.06L843.466 1506.35L843.483 1506.66L843.517 1506.94L843.636 1507.09L844.078 1507.4L844.163 1507.52L844.214 1507.66L844.265 1507.95L844.469 1508.53L844.503 1508.82L844.35 1508.99L843.789 1509.08L843.517 1509.15L843.296 1509.3L843.245 1509.44V1509.61V1509.96L843.313 1510.11L843.432 1510.28L843.466 1510.45L843.296 1510.61L842.752 1510.92L842.599 1511.04L842.275 1511.41L842.207 1511.45L842.071 1511.48L842.02 1511.52L841.986 1511.67L842.02 1512.07L841.969 1512.17L841.782 1512.15L841.595 1512.12L841.442 1512.14L841.323 1512.31L841.272 1513.42L841.17 1513.66L841.034 1513.75L840.575 1513.87L840.388 1513.99L840.303 1514.11V1514.25L840.337 1514.97L840.32 1515.04L840.184 1515.36L840.15 1515.52L840.201 1515.67L840.371 1515.84L840.507 1515.96L840.983 1516.72L841.119 1516.85L841.612 1517.23L841.748 1517.35L841.952 1517.66L842.156 1517.85L842.139 1518L842.003 1518.11H841.816H841.646L841.544 1518.45L841.255 1518.54L841.102 1518.69L840.966 1518.86L840.915 1519.02L841.017 1519.27V1519.34L840.949 1519.38L840.728 1519.46L840.643 1519.51L840.541 1519.67L840.49 1519.84L840.473 1520.01L840.422 1520.18L839.894 1521.01L839.809 1521.27L839.86 1521.52L839.963 1521.78L840.32 1522.67L840.677 1523.58L841.017 1524.47L841.374 1525.37L841.561 1525.85L841.85 1526.21L842.003 1526.35L842.19 1526.47L842.377 1526.53H842.599L842.684 1526.48L842.854 1526.36L842.939 1526.33L843.024 1526.35L843.296 1526.43L843.534 1526.35L843.721 1526.47L844.061 1526.84L844.486 1527.01L844.673 1527.15L844.758 1527.39L844.571 1527.68L843.653 1528.06L843.364 1528.2L843.16 1528.47L843.075 1528.63L843.058 1528.8L843.075 1529.31L843.058 1529.59L843.092 1529.73L843.313 1530.05L843.211 1530.19L843.075 1530.36L842.939 1530.46L842.446 1530.72L842.292 1530.76L842.003 1530.79L841.867 1530.88L841.799 1531L841.629 1531.48L841.527 1531.67L840.677 1532.57L840.456 1533.06L840.354 1533.18L839.997 1533.38L839.946 1533.45L839.929 1533.54L839.946 1533.59L840.014 1533.6L840.048 1533.66L840.014 1533.79L839.843 1534.02L839.622 1534.1L839.384 1534.14L839.146 1534.24L838.891 1534.41L838.449 1534.82L838.398 1534.84L838.245 1534.86L838.211 1534.87L838.126 1535.06L837.99 1535.56L837.854 1535.78H837.871L838.296 1535.84L838.432 1535.89L838.755 1536.16L838.925 1536.33L839.044 1536.49L839.146 1536.75L839.163 1537.05L839.146 1537.69ZM783.67 1509.44L783.721 1509.54L783.755 1509.61L783.84 1509.66L783.806 1509.73L783.704 1509.7L783.568 1509.61L783.466 1509.54V1509.44L783.534 1509.42L783.67 1509.44ZM781.612 1505.72L781.663 1505.73V1505.84L781.629 1505.92L781.544 1505.94H781.459L781.391 1505.91L781.408 1505.8L781.476 1505.73L781.493 1505.65H781.595L781.612 1505.72ZM775.065 1490.55L775.388 1490.84L775.456 1490.92L775.49 1490.97L775.405 1490.96L775.303 1490.97L775.184 1490.89L775.031 1490.79L774.929 1490.65L774.894 1490.53L774.963 1490.49L775.065 1490.55ZM745.099 1442.3L745.048 1442.36L744.997 1442.51L745.048 1442.61L745.116 1442.7V1442.8V1442.94L745.133 1443.09L745.031 1443.11L744.929 1443.09L744.894 1443.03L744.929 1442.94L744.894 1442.8L744.826 1442.73L744.894 1442.66L744.912 1442.54L745.014 1442.25L745.099 1442.3Z" fill="#A1FF62" stroke="#201D1D" stroke-width="0.59224" stroke-linecap="round" stroke-linejoin="round"/>
</svg>
